<svg id="Layer_3" data-name="Layer 3" xmlns="http://www.w3.org/2000/svg" xmlns:xlink="http://www.w3.org/1999/xlink" viewBox="0 0 814.41 470.61"><defs><style>.cls-1{fill:url(#linear-gradient);}.cls-2{fill:url(#linear-gradient-2);}.cls-3{fill:url(#linear-gradient-3);}.cls-4{fill:url(#linear-gradient-4);}.cls-5{font-size:119.87px;fill:#002130;font-family:Montserrat;font-weight:700;}.cls-6{letter-spacing:-17.6px;}.cls-7{letter-spacing:-1.17px;}.cls-8{letter-spacing:-5.87px;}</style><linearGradient id="linear-gradient" x1="359.19" y1="419.58" x2="608.15" y2="419.58" gradientUnits="userSpaceOnUse"><stop offset="0.36" stop-color="#f55800"/><stop offset="0.9" stop-color="#f51800"/></linearGradient><linearGradient id="linear-gradient-2" x1="181.94" y1="419.56" x2="497.01" y2="419.56" gradientUnits="userSpaceOnUse"><stop offset="0" stop-color="#f55800"/><stop offset="1" stop-color="#f51800"/></linearGradient><linearGradient id="linear-gradient-3" x1="642.1" y1="561.99" x2="753.86" y2="393.33" gradientUnits="userSpaceOnUse"><stop offset="0" stop-color="#246f78"/><stop offset="0.32" stop-color="#1a5a65"/><stop offset="0.97" stop-color="#012433"/><stop offset="1" stop-color="#002130"/></linearGradient><linearGradient id="linear-gradient-4" x1="401.16" y1="419.55" x2="715.95" y2="419.55" gradientUnits="userSpaceOnUse"><stop offset="0" stop-color="#246f78"/><stop offset="1" stop-color="#002130"/></linearGradient></defs><title>Web Vibez Logo (Vertical)</title><path class="cls-1" d="M608.15,383.13c-18.54,33.12-47.31,84.48-70.45,125.7C522,537,508.83,560.39,503.38,570.13a9.43,9.43,0,0,1-1.7,2.25,6.54,6.54,0,0,1-4.55,1.9h-0.2a7.07,7.07,0,0,1-1,0h-3.4q-30.88-.07-61.8,0h-5q-30.28-.08-60.6-0.05a5.13,5.13,0,0,0-.85.05H364c-0.15,0-.3,0-0.45,0a6.45,6.45,0,0,1-2.4,0,3.55,3.55,0,0,1-2-1.2,4.68,4.68,0,0,1,.3-0.75,27.78,27.78,0,0,1,1.85-3.9c13.24-23.78,57.26-99.87,67.25-117,1.25-2.2,1.95-3.4,2-3.45s16.69-29.28,36.92-64.45c29.48-51.21,66.55-114.91,70.84-118.66a0.57,0.57,0,0,1,.3-0.2L539,265H539c0.85,0.85,3.1,3.2,6.44,6.64Q576.77,327.42,608.15,383.13Z" transform="translate(-92.79 -264.69)"/><path class="cls-2" d="M497,573.13c-1.67,2-3.93,1.09-5.9,1.1-43.6.06-87.21,0-130.81,0.12-3.52,0-5.61-.92-7.46-4.23q-84.29-150.58-168.78-301c-0.61-1.09-1.11-2.24-2.11-4.25h5.88c43,0,85.95.08,128.92-.12,4.44,0,6.53,1.62,8.65,5.41q48.76,87,97.85,173.87c1,1.79,1.48,4.1,3.72,4.94,8.21,12.69,15.24,26.11,22.68,39.26q22.69,40.11,45.2,80.33A23.82,23.82,0,0,1,497,573.13Z" transform="translate(-92.79 -264.69)"/><path class="cls-3" d="M804.18,415.51c-23.48,41.87-70.41,126.14-85.95,153.86-0.55.95-2.28,4.15-2.28,4.15-0.3,0-48.68,0-70.41,0h-0.2q-32.67-.08-65.4-0.05a5.13,5.13,0,0,0-.85.05h-0.2c-1.7.2-3.45,0.5-4.85-1.15a4.68,4.68,0,0,1,.3-0.75,27.78,27.78,0,0,1,1.85-3.9c14.94-26.83,68.9-120.06,69.25-120.46,0,0.05,73.11-128.23,77-128.38C722.69,318.83,787.09,385.13,804.18,415.51Z" transform="translate(-92.79 -264.69)"/><path class="cls-4" d="M715.95,573.52c-0.6.7-45.9,0.71-66,.76h-5q-31.25,0-62.55.1h-2.85c-3.5,0-5.6-.95-7.44-4.25q-17.16-30.65-34.37-61.3-35.07-62.65-70.2-125.25-32.15-57.26-64.25-114.51c-0.6-1.1-1.1-2.25-2.1-4.25h5.9c43,0,85.93.1,128.9-.1a11.63,11.63,0,0,1,2.4.2,2.51,2.51,0,0,1,.6.1H539c2.5,0.65,4,2.3,5.6,5.1,0.3,0.5.6,1,.85,1.55q31.33,55.76,62.7,111.46L642.47,444c1,1.8,1.5,4.1,3.7,4.95l1.65,2.55c7.54,11.94,14.09,24.43,21,36.72C684,514.93,715.45,571.87,715.95,573.52Z" transform="translate(-92.79 -264.69)"/><text class="cls-5" transform="translate(0 438.85) scale(0.85 1)">THE<tspan class="cls-6" x="249.58" y="0"> </tspan><tspan class="cls-7" x="264.68" y="0">W</tspan><tspan x="400.02" y="0">EB</tspan><tspan class="cls-6" x="571.56" y="0"> </tspan><tspan class="cls-7" x="586.66" y="0">V</tspan><tspan class="cls-8" x="672.25" y="0">I</tspan><tspan x="704.49" y="0">BEZ</tspan></text></svg>