<svg id="Layer_3" data-name="Layer 3" xmlns="http://www.w3.org/2000/svg" xmlns:xlink="http://www.w3.org/1999/xlink" viewBox="0 0 766.7 381.67"><defs><style>.cls-1{fill:url(#linear-gradient);}.cls-2{fill:url(#linear-gradient-2);}.cls-3{fill:url(#linear-gradient-3);}.cls-4{fill:url(#linear-gradient-4);}</style><linearGradient id="linear-gradient" x1="335.05" y1="500.02" x2="641.81" y2="500.02" gradientUnits="userSpaceOnUse"><stop offset="0.36" stop-color="#f55800"/><stop offset="0.9" stop-color="#f51800"/></linearGradient><linearGradient id="linear-gradient-2" x1="116.65" y1="499.99" x2="504.86" y2="499.99" gradientUnits="userSpaceOnUse"><stop offset="0" stop-color="#f55800"/><stop offset="1" stop-color="#f51800"/></linearGradient><linearGradient id="linear-gradient-3" x1="683.64" y1="675.49" x2="821.34" y2="467.67" gradientUnits="userSpaceOnUse"><stop offset="0" stop-color="#246f78"/><stop offset="0.32" stop-color="#1a5a65"/><stop offset="0.97" stop-color="#012433"/><stop offset="1" stop-color="#002130"/></linearGradient><linearGradient id="linear-gradient-4" x1="386.76" y1="499.98" x2="774.63" y2="499.98" gradientUnits="userSpaceOnUse"><stop offset="0" stop-color="#246f78"/><stop offset="1" stop-color="#002130"/></linearGradient></defs><title>Web Vibez Logo Mark</title><path class="cls-1" d="M641.81,455.1C619,495.92,583.51,559.2,555,610c-19.39,34.66-35.58,63.53-42.29,75.53a11.61,11.61,0,0,1-2.09,2.77,8.06,8.06,0,0,1-5.6,2.34h-0.25a8.72,8.72,0,0,1-1.29.06H499.3q-38-.09-76.15-0.06H417q-37.31-.09-74.67-0.06a6.32,6.32,0,0,0-1,.06H341c-0.18,0-.37.06-0.55,0.06a7.94,7.94,0,0,1-3,0,4.37,4.37,0,0,1-2.46-1.48,5.77,5.77,0,0,1,.37-0.92,34.23,34.23,0,0,1,2.28-4.8c16.31-29.3,70.55-123.06,82.86-144.17,1.54-2.71,2.4-4.19,2.46-4.25s20.56-36.07,45.49-79.41c36.32-63.1,82-141.59,87.29-146.21a0.7,0.7,0,0,1,.37-0.25l0.37,0.37h0.06c1,1,3.82,3.94,7.94,8.19Q603.15,386.46,641.81,455.1Z" transform="translate(-116.65 -309.17)"/><path class="cls-2" d="M504.86,689.21c-2.06,2.45-4.84,1.35-7.27,1.35-53.73.07-107.45,0-161.18,0.14-4.33,0-6.92-1.14-9.2-5.21Q223.35,500,119.25,314.55c-0.75-1.34-1.37-2.76-2.6-5.24h7.24c53,0,105.9.1,158.85-.15,5.48,0,8,2,10.66,6.66Q353.49,423.07,414,530.07c1.24,2.2,1.82,5.05,4.58,6.09,10.12,15.63,18.78,32.17,28,48.38q28,49.42,55.69,99A29.35,29.35,0,0,1,504.86,689.21Z" transform="translate(-116.65 -309.17)"/><path class="cls-3" d="M883.35,495c-28.93,51.59-86.75,155.42-105.9,189.58-0.68,1.17-2.81,5.11-2.81,5.11-0.37.06-60,0-86.76,0h-0.25q-40.26-.09-80.58-0.06a6.32,6.32,0,0,0-1,.06h-0.25c-2.09.25-4.25,0.62-6-1.42a5.77,5.77,0,0,1,.37-0.92,34.23,34.23,0,0,1,2.28-4.8c18.41-33.06,84.89-147.93,85.32-148.42,0,0.06,90.08-158,94.88-158.19C782.94,375.88,862.29,457.57,883.35,495Z" transform="translate(-116.65 -309.17)"/><path class="cls-4" d="M774.63,689.69c-0.74.86-56.55,0.88-81.36,0.94h-6.16q-38.51,0-77.07.12h-3.51c-4.31,0-6.89-1.17-9.17-5.23Q576.22,647.75,555,610q-43.22-77.2-86.49-154.33-39.61-70.55-79.17-141.1c-0.74-1.35-1.35-2.77-2.59-5.23H394c52.94,0,105.88.12,158.83-.12a14.34,14.34,0,0,1,3,.25,3.09,3.09,0,0,1,.74.12h0.06c3.08,0.8,5,2.83,6.89,6.28,0.37,0.62.74,1.29,1,1.91q38.6,68.7,77.26,137.34l42.29,75c1.23,2.22,1.85,5,4.56,6.09l2,3.14C700,554,708,569.42,716.6,584.56,735.26,617.5,774,687.66,774.63,689.69Z" transform="translate(-116.65 -309.17)"/></svg>