<svg id="Layer_3" data-name="Layer 3" xmlns="http://www.w3.org/2000/svg" xmlns:xlink="http://www.w3.org/1999/xlink" viewBox="0 0 852.19 145.64"><defs><style>.cls-1{fill:url(#linear-gradient);}.cls-2{fill:url(#linear-gradient-2);}.cls-3{fill:url(#linear-gradient-3);}.cls-4{fill:url(#linear-gradient-4);}.cls-5{font-size:86.13px;fill:#002130;font-family:Montserrat;font-weight:700;}.cls-6{letter-spacing:-12.91px;}.cls-7{letter-spacing:-1.17px;}.cls-8{letter-spacing:-3.52px;}</style><linearGradient id="linear-gradient" x1="144.57" y1="488.92" x2="243.81" y2="488.92" gradientUnits="userSpaceOnUse"><stop offset="0.36" stop-color="#f55800"/><stop offset="0.9" stop-color="#f51800"/></linearGradient><linearGradient id="linear-gradient-2" x1="73.91" y1="488.91" x2="199.5" y2="488.91" gradientUnits="userSpaceOnUse"><stop offset="0" stop-color="#f55800"/><stop offset="1" stop-color="#f51800"/></linearGradient><linearGradient id="linear-gradient-3" x1="257.34" y1="545.69" x2="301.9" y2="478.46" gradientUnits="userSpaceOnUse"><stop offset="0" stop-color="#246f78"/><stop offset="0.32" stop-color="#1a5a65"/><stop offset="0.97" stop-color="#012433"/><stop offset="1" stop-color="#002130"/></linearGradient><linearGradient id="linear-gradient-4" x1="161.3" y1="488.91" x2="286.78" y2="488.91" gradientUnits="userSpaceOnUse"><stop offset="0" stop-color="#246f78"/><stop offset="1" stop-color="#002130"/></linearGradient></defs><title>Web Vibez Logo</title><path class="cls-1" d="M243.81,474.39c-7.39,13.2-18.86,33.68-28.08,50.11L202,548.94a3.76,3.76,0,0,1-.68.9,2.61,2.61,0,0,1-1.81.76h-0.08a2.82,2.82,0,0,1-.42,0H197.7q-12.31,0-24.64,0h-2q-12.07,0-24.16,0a2,2,0,0,0-.34,0H146.5l-0.18,0a2.57,2.57,0,0,1-1,0,1.41,1.41,0,0,1-.8-0.48,1.87,1.87,0,0,1,.12-0.3,11.07,11.07,0,0,1,.74-1.55c5.28-9.48,22.82-39.81,26.81-46.65,0.5-.88.78-1.35,0.8-1.37s6.65-11.67,14.72-25.69c11.75-20.41,26.53-45.81,28.24-47.3a0.23,0.23,0,0,1,.12-0.08l0.12,0.12h0c0.34,0.34,1.23,1.27,2.57,2.65Q231.3,452.19,243.81,474.39Z" transform="translate(-73.91 -427.18)"/><path class="cls-2" d="M199.5,550.14c-0.67.79-1.56,0.44-2.35,0.44-17.38,0-34.76,0-52.15,0a2.92,2.92,0,0,1-3-1.69q-33.6-60-67.28-120c-0.24-.43-0.44-0.89-0.84-1.7h2.34c17.13,0,34.26,0,51.39,0a3.44,3.44,0,0,1,3.45,2.16q19.44,34.7,39,69.31c0.4,0.71.59,1.63,1.48,2,3.27,5.06,6.08,10.41,9,15.65q9,16,18,32A9.5,9.5,0,0,1,199.5,550.14Z" transform="translate(-73.91 -427.18)"/><path class="cls-3" d="M322,487.3c-9.36,16.69-28.07,50.28-34.26,61.34-0.22.38-.91,1.65-0.91,1.65s-19.4,0-28.07,0h-0.08q-13,0-26.07,0a2,2,0,0,0-.34,0h-0.08a1.9,1.9,0,0,1-1.93-.46,1.87,1.87,0,0,1,.12-0.3,11.07,11.07,0,0,1,.74-1.55c6-10.7,27.47-47.86,27.6-48,0,0,29.14-51.12,30.7-51.18C289.47,448.76,315.15,475.19,322,487.3Z" transform="translate(-73.91 -427.18)"/><path class="cls-4" d="M286.78,550.29c-0.24.28-18.3,0.28-26.32,0.3h-2q-12.46,0-24.94,0H232.4a2.93,2.93,0,0,1-3-1.69q-6.84-12.22-13.7-24.44-14-25-28-49.93-12.82-22.82-25.61-45.65c-0.24-.44-0.44-0.9-0.84-1.69h2.35c17.13,0,34.26,0,51.39,0a4.64,4.64,0,0,1,1,.08,1,1,0,0,1,.24,0h0a3.57,3.57,0,0,1,2.23,2c0.12,0.2.24,0.42,0.34,0.62q12.49,22.23,25,44.43l13.68,24.26c0.4,0.72.6,1.63,1.47,2l0.66,1c3,4.76,5.62,9.74,8.38,14.64C274,526.93,286.59,549.63,286.78,550.29Z" transform="translate(-73.91 -427.18)"/><text class="cls-5" transform="translate(267.02 122.82) scale(0.85 1)">THE<tspan class="cls-6" x="179.32" y="0"> </tspan><tspan class="cls-7" x="190.18" y="0">W</tspan><tspan x="287.42" y="0">EB</tspan><tspan class="cls-6" x="410.67" y="0"> </tspan><tspan class="cls-7" x="421.52" y="0">V</tspan><tspan class="cls-8" x="483.02" y="0">I</tspan><tspan x="506.19" y="0">BEZ</tspan></text></svg>